<svg xmlns="http://www.w3.org/2000/svg" width="260.728" height="49.765" viewBox="0 0 260.728 49.765">
  <g id="Group_971" data-name="Group 971" transform="translate(-11 -8)">
    <g id="header" transform="translate(11.004 5.979)">
      <g id="logo" transform="translate(0 1)">
        <rect id="Rectangle" width="39" height="0.69" transform="translate(7 50.096)" fill="#fdb913"/>
        <g id="Group_969" data-name="Group 969" transform="translate(6 0.987)">
          <path id="Path" d="M5.931,23.656c6.533,0,15.624,3.657,22.224,3.657,4.714,0,9.294-1.263,11.92-3.058A19.729,19.729,0,0,0,23.44,1.782,19.951,19.951,0,0,0,.678,18.2a18.245,18.245,0,0,0,0,6.05,35.31,35.31,0,0,1,5.253-.594Z" transform="translate(-0.154 -1.024)" fill="#fff"/>
          <path id="Path-2" data-name="Path" d="M49.1,23.5l.828.345,1.8-1.245Z" transform="translate(-32.564 -8.105)" fill="#fdb913"/>
          <path id="Path-3" data-name="Path" d="M3.964,15.363,1.877,14.6l.135-.276,2.289.828h0l.337-.207h.135l-2.559-1.17.135-.276L8,15.846h.2l-5.655-2.9.135-.276,6,2.83h.067l-5.79-3.383.135-.276,8.348,4.694.269-.483a76.552,76.552,0,0,0-6.261-5.385,73.1,73.1,0,0,0,7.069,4.142l.337-.483L5.782,7.976l.2-.207,5.723,5.04L6.388,7.355l.2-.207,5.992,5.937L6.994,6.733l.2-.207,5.184,5.661L7.667,6.112l.2-.207,6.059,7.525.471-.345A76.376,76.376,0,0,0,10.562,5.7a79.078,79.078,0,0,0,4.982,6.558l.539-.276h0L11.774,3.351l.269-.138,3.5,6.9-2.962-7.18L12.85,2.8l3.366,7.8-2.826-8h.269L16.352,9.84,14.2,2.315h.269L17.3,11.566h0l.606-.138a69.954,69.954,0,0,0-.875-8.422,81.56,81.56,0,0,0,2.222,7.939h.539L19.045,1.28h.269l.741,7.732L19.92,1.28h.269l.269,8.56.269-8.56h.4L21,9.011l.673-7.732h.269L21.2,10.944h.606a75.184,75.184,0,0,0,2.222-7.87c-.4,2.692-.741,5.454-.875,8.215l.539.207L26.52,2.245h.269L24.633,9.771l2.693-7.249H27.6l-2.828,8.146,3.366-7.8.269.138-2.9,7.111,3.5-6.9.269.138L25.037,11.98h0l.539.276a77.971,77.971,0,0,0,4.982-6.489,74.693,74.693,0,0,0-3.77,7.318l.471.414,5.857-7.525.2.207L28.6,12.256,33.789,6.6l.2.207L28.4,13.154l6-5.937.2.207-5.319,5.454L35,7.838l.2.207-7,6.351h0l.337.414a72.1,72.1,0,0,0,7-4.142,76.972,76.972,0,0,0-6.194,5.316l.337.552,8.22-4.625.135.276-6.6,3.8L38.3,12.739l.135.276-6.4,3.176h.135l6.463-2.623.135.276-6.059,2.623h.135l4.039-1.381.606-.414.2.138,1.347-.414.135.276-1.145.414,1.62,1.314.539.276A20.265,20.265,0,0,0,15.813,1.349,20.468,20.468,0,0,0,.8,17.157h0l.269-.138H1.2Z" transform="translate(-0.27 -0.788)" fill="#fdb913"/>
          <path id="Path-4" data-name="Path" d="M.347,31.748A36.7,36.7,0,0,1,5.8,31.127c6.535,0,15.629,3.8,22.232,3.8,4.851,0,9.566-1.381,12.126-3.314a20.852,20.852,0,0,0-.269-8.422L37.13,21.6,33.9,23.878l-2.156-.828C31,23.4,26.486,26.5,26.486,26.5l-1.751-1.31-1.819-.345-2.493-1.864-2.829,2-3.3,1.864c-.135,0-3.84-3.038-3.84-3.038L8.768,22.014l-1.482.759H7.219l-1.145-.345-1.347-.759L.549,23.6H.482a22.087,22.087,0,0,0-.135,8.148Z" transform="translate(-0.032 -8.221)" fill="#4c81af"/>
        </g>
        <path id="Shape" d="M84.4,15.881h-.35a.525.525,0,0,0,0,.576h2.756a.52.52,0,0,0,.115-.32.346.346,0,0,0-.115-.256h-.345c-.459,0-.459-.128-.459-1.152V11.144c0-1.024,0-1.28.459-1.28h.287c.115,0,.172,0,.172-.192a.222.222,0,0,0-.23-.256H84.05a.52.52,0,0,0-.115.32.131.131,0,0,0,.115.128h.35c.459,0,.459.192.459,1.152v3.648C84.854,15.817,84.854,15.817,84.4,15.881Zm-6.833,0h-.4a.525.525,0,0,0,0,.576h2.986a.525.525,0,0,0,0-.576h-.517c-.4,0-.4-.192-.4-.64V13.192h.115c.689,0,.689,0,.976.64l1.148,2.24h0a.554.554,0,0,0,.517.384H83.37a.518.518,0,0,0,.057-.576h-.459c-.23-.064-.287-.192-.459-.448h0L81.581,13.7l-.345-.7a1.851,1.851,0,0,0,1.436-1.792c0-1.344-1.206-1.792-2.239-1.792H77.16v.128h0c0,.128,0,.32.115.384h.345c.517.064.517.064.517.64v4.544h0c-.116.7-.173.769-.575.769Zm1.665-5.824h.689A1.245,1.245,0,0,1,81.3,11.273a1.127,1.127,0,0,1-.4.96,2.188,2.188,0,0,1-1.091.32h-.574Zm36.521,15.489h-.23c-.23-.064-.287-.384-.4-.7v-.128l-2.01-5.312s-.115-.384-.287-.384-.345.32-.4.448l-1.952,5.44c-.115.32-.23.64-.459.64H109.5a.531.531,0,0,0-.057.576h2.239a.525.525,0,0,0,0-.576h-.4c-.287,0-.287-.064-.287-.192a.722.722,0,0,1,.115-.32l.287-.832s.115-.384.287-.384h1.55c.287,0,.345.448.345.448l.23.7.172.448c0,.064-.057.192-.4.192h-.517a.525.525,0,0,0,0,.576h2.756c.172,0,.172-.128.172-.384q0-.192-.172-.192h0Zm-2.7-2.56h-1.378l.689-2.048.746,2.048Zm-25.84-12.1h0a.313.313,0,0,0,.287.192s.172.064.23-.064a7.262,7.262,0,0,1,.345-.7,1.152,1.152,0,0,1,.976-.32h.632v5.248c0,.448,0,.64-.345.64h-.517a.525.525,0,0,0,0,.576h2.871a.519.519,0,0,0,.115-.32.346.346,0,0,0-.115-.256h-.4c-.4,0-.4-.192-.4-.96h0V9.992h.8a.938.938,0,0,1,.861.384.962.962,0,0,1,.172.576H93.3a5.834,5.834,0,0,1,.115-1.408h0V9.288H92.9c-.115.192-.115.192-.574.192H88.7c-.459,0-.574,0-.632-.192h-.517a5.789,5.789,0,0,1-.345,1.344h0Zm10.508,5.44h0a4.111,4.111,0,0,0,1.723.32h.115a2.2,2.2,0,0,0,2.469-2.112c0-1.216-.459-1.6-1.493-2.176l-.861-.512c-.4-.256-.861-.64-.861-1.088a1.049,1.049,0,0,1,1.148-.96h.172a1.21,1.21,0,0,1,1.148,1.024h.632V10.7a3.681,3.681,0,0,0-.23-1.344h-.517l-1.034-.128h0c-1.665.064-2.412,1.024-2.354,2.048A2.385,2.385,0,0,0,99.1,13.2l1.034.64a1.333,1.333,0,0,1,.8,1.28,1.114,1.114,0,0,1-1.206,1.024h0A1.75,1.75,0,0,1,98.062,14.8c-.057-.128-.115-.192-.23-.192h-.4a4.169,4.169,0,0,0,.287,1.472Zm-3.445-.384h-.23a.424.424,0,0,0,0,.512H96.8a.52.52,0,0,0,.115-.32.346.346,0,0,0-.115-.256h-.345C96,15.814,96,15.814,96,14.79V11.208c0-1.088,0-1.28.459-1.28h.287c.115-.064.23-.064.172-.256a.262.262,0,0,0-.23-.256H94.042a.52.52,0,0,0-.115.32c0,.128.057.128.115.192h.345c.459,0,.459.064.459,1.152v3.584c-.057,1.152-.057,1.152-.517,1.216Zm8.5-5.952h.345c.345,0,.4.064.4,1.152v3.9c0,.768-.057.832-.4.832h-.345a.525.525,0,0,0,0,.576h2.641a.52.52,0,0,0,.115-.32.346.346,0,0,0-.115-.256h-.287c-.287,0-.4-.128-.4-1.088v-1.53h3.331v1.792s0,.832-.4.832h-.287a.525.525,0,0,0,0,.576h2.584a.52.52,0,0,0,.115-.32.346.346,0,0,0-.115-.256H109.6c-.4,0-.4-.064-.4-1.024V11.08c0-1.024,0-1.024.4-1.088h.23a.247.247,0,0,0,.172-.32h0a.262.262,0,0,0-.23-.256H107.3a.346.346,0,0,0-.115.256.519.519,0,0,0,.115.32h.23c.459,0,.459.064.459,1.088v1.344h-3.331v-1.28c0-1.024,0-1.152.345-1.152h.287c.172,0,.172-.128.172-.32s0-.256-.23-.256H102.77a.346.346,0,0,0-.115.256.52.52,0,0,0,.115.32Zm5.857,9.6h.287c.115,0,.172-.128.172-.256a.319.319,0,0,0-.287-.256h-2.7a.506.506,0,0,0-.115.384.345.345,0,0,0,.115.192h.345c.459,0,.459.064.459,1.216v3.648c0,1.024,0,1.024-.459,1.088h-.35a.525.525,0,0,0,0,.576h2.814a.52.52,0,0,0,.115-.32.346.346,0,0,0-.115-.256h-.345c-.459-.064-.459-.064-.459-1.088V20.809c0-1.088,0-1.216.345-1.216Zm-24.347,4.8h-.459a2.1,2.1,0,0,1-.632.96,2.569,2.569,0,0,1-.976.128H82.1a1.169,1.169,0,0,1-.919-.192c-.115-.128-.23-.256-.23-.9V20.745c0-1.024.115-1.088.574-1.088h.287c.115,0,.172-.064.172-.32a.262.262,0,0,0-.23-.256H78.94a.519.519,0,0,0-.115.32.346.346,0,0,0,.115.256h.344c.517,0,.517.064.517,1.152v3.712c0,1.024,0,1.088-.459,1.088h-.4a.525.525,0,0,0,0,.576H84a10.741,10.741,0,0,0,.459-1.472c.057-.128-.057-.256-.172-.32Zm-6.2-4.416a3.318,3.318,0,0,0-2.641-1.152h-.172a3.54,3.54,0,0,0-3.331,3.712v.128a3.413,3.413,0,0,0,3.5,3.648h.115A3.549,3.549,0,0,0,79,22.6h0a3.913,3.913,0,0,0-.921-2.623Zm-2.527,5.7c-.919,0-2.412-.768-2.412-3.392s1.263-2.816,2.125-2.816A3.246,3.246,0,0,1,77.734,22.6v.32c-.057,1.409-.689,2.753-2.182,2.753Zm24-.128H99.21l-.345-.128a.346.346,0,0,1-.115-.256h0V20.233a1.561,1.561,0,0,1,.057-.512c.057-.128.632-.128.632-.128s.115-.064.115-.128.057-.32-.057-.448H98c-.287,0-.345.192-.4.384l-2.01,4.736L93.87,19.4q-.086-.384-.345-.384H91.688l-.172.128c0,.192-.057.32.115.448H92.2c.115,0,.172.128.172.448L92.257,24.9c-.057.512-.115.64-.459.64h-.459a.531.531,0,0,0,.057.576h2.412a.525.525,0,0,0,0-.576h-.459A.4.4,0,0,1,93,25.352a1.557,1.557,0,0,1-.057-.9V20.425L94.9,25.8h0a.313.313,0,0,0,.287.192h.23l2.239-5.44v4.672h0a.346.346,0,0,1-.115.256l-.345.128h-.459a.525.525,0,0,0,0,.576h2.871a.535.535,0,0,0-.053-.639Zm-8.613-6.529H88.53a.419.419,0,0,0-.057.512h.746a24.383,24.383,0,0,1,.115,3.328c0,1.088-.919,2.56-1.78,2.56s-1.723-.768-1.723-2.56V20.489c0-.832,0-.9.4-.9h.345c.115-.064.172-.128.115-.32s-.057-.256-.172-.256H83.878a.52.52,0,0,0-.115.32.346.346,0,0,0,.115.256h.4c.4,0,.4,0,.4,1.024v2.5a3.4,3.4,0,0,0,.919,2.56,2.889,2.889,0,0,0,1.723.64h.18a3.027,3.027,0,0,0,2.01-.832,3.588,3.588,0,0,0,.632-2.624c0-1.024.057-2.112.115-3.136a.416.416,0,0,1,.287-.128h.4c.115-.064.115-.128.115-.32a.346.346,0,0,0-.118-.256ZM70.958,8.968c.345,0,.4.064.4.96v4.608c0,1.216,0,1.216-.517,1.344H70.5a.419.419,0,0,0-.057.512h2.986c2.125,0,3.331-.96,3.331-2.624A2.111,2.111,0,0,0,75.1,11.72a1.735,1.735,0,0,0,1.034-1.664,1.841,1.841,0,0,0-.861-1.472,4.263,4.263,0,0,0-1.78-.384H73.2l-2.584.128c-.057,0-.172.128-.172.192a.424.424,0,0,0,.115.448Zm4.479,5.312c0,1.216-.919,1.472-1.723,1.472H73.6a.938.938,0,0,1-.689-.256,2.568,2.568,0,0,1-.23-1.152V12.552H73.2c1.95-.128,2.237,1.088,2.237,1.728ZM72.681,9.032h.574a1.442,1.442,0,0,1,1.608,1.408c0,1.024-.287,1.28-1.723,1.344h-.459ZM71.36,23.817h-.287a2.187,2.187,0,0,1-2.067,1.664h-.115c-1.895,0-3.158-1.6-3.158-3.9A3.307,3.307,0,0,1,68.6,17.993h.115c1.436,0,1.895.576,2.125,1.664h.689a9.474,9.474,0,0,1-.172-1.792v-.192h-.4a6.986,6.986,0,0,0-2.01-.32h-.23a4.687,4.687,0,0,0-2.986,1.088,4.6,4.6,0,0,0-1.436,3.52,4.216,4.216,0,0,0,1.665,3.584,4.6,4.6,0,0,0,2.7.9h.172a5.863,5.863,0,0,0,1.838-.32L71.015,26h.115a5,5,0,0,0,.57-1.8h0a.394.394,0,0,0-.34-.383Zm33.133-1.664a1.6,1.6,0,0,0,.747-1.984,1.469,1.469,0,0,0-.8-.9,5.358,5.358,0,0,0-1.723-.256h-2.469l-.172.128a.43.43,0,0,0,.057.448h.459c.345,0,.345.064.345.832v4.032c0,1.024,0,1.024-.4,1.088h-.287a.346.346,0,0,0-.115.256.52.52,0,0,0,.115.32h2.7c2.412,0,2.986-.576,2.986-2.3a1.946,1.946,0,0,0-1.493-1.664Zm-2.354-2.56h.517c.689,0,1.493.32,1.493,1.216s-.345,1.152-1.608,1.152h-.4Zm.23,5.76a1.548,1.548,0,0,1-.287-.96V22.665h.574c1.608,0,1.952.9,1.952,1.664s-.861,1.216-1.608,1.216a1.07,1.07,0,0,1-.632-.192Z" transform="translate(-64.293 21.654)" fill="#fff"/>
        <rect id="Rectangle-2" data-name="Rectangle" width="0.69" height="0.69" transform="translate(46.206 24.552)" fill="none"/>
      </g>
    </g>
    <g id="Group_970" data-name="Group 970" transform="translate(-5.224)">
      <text id="BC" transform="translate(78.224 40)" fill="#fcba19" font-size="24" font-family="MyriadPro-It, Myriad Pro" font-style="italic"><tspan x="0" y="0">BC</tspan></text>
      <text id="Mine_Information" data-name="Mine Information" transform="translate(107.952 40)" fill="#fff" font-size="24" font-family="MyriadPro-It, Myriad Pro" font-style="italic"><tspan x="0" y="0">Mine Information</tspan></text>
    </g>
  </g>
</svg>
